<mxfile host="app.diagrams.net" modified="2021-12-09T21:21:27.969Z" agent="5.0 (Windows NT 10.0; Win64; x64) AppleWebKit/537.36 (KHTML, like Gecko) Chrome/96.0.4664.45 Safari/537.36" etag="8B3Iol-Ps47VzMP0C-hZ" version="15.9.4" type="github">
  <diagram id="ipfkZgnxKMLyzHBdYo4m" name="Page-1">
    <mxGraphModel dx="2272" dy="762" grid="1" gridSize="10" guides="1" tooltips="1" connect="1" arrows="1" fold="1" page="1" pageScale="1" pageWidth="850" pageHeight="1100" math="0" shadow="0">
      <root>
        <mxCell id="0" />
        <mxCell id="1" parent="0" />
        <mxCell id="Ly9fsqYfZSRWiU3ShBAM-2" value="&lt;font style=&quot;font-size: 20px&quot;&gt;&lt;b&gt;Site Title&lt;/b&gt;&lt;/font&gt;" style="text;html=1;align=center;verticalAlign=middle;resizable=0;points=[];autosize=1;strokeColor=none;fillColor=none;" vertex="1" parent="1">
          <mxGeometry x="20" y="35" width="100" height="20" as="geometry" />
        </mxCell>
        <mxCell id="Ly9fsqYfZSRWiU3ShBAM-3" value="&lt;font style=&quot;font-size: 18px&quot;&gt;Menu &lt;br&gt;Item 1&lt;/font&gt;" style="text;html=1;align=center;verticalAlign=middle;resizable=0;points=[];autosize=1;strokeColor=none;fillColor=none;fontSize=20;" vertex="1" parent="1">
          <mxGeometry x="165" y="15" width="70" height="60" as="geometry" />
        </mxCell>
        <mxCell id="Ly9fsqYfZSRWiU3ShBAM-4" value="&lt;font style=&quot;font-size: 18px&quot;&gt;Menu&lt;br&gt;&amp;nbsp;Item 2&lt;/font&gt;" style="text;html=1;align=center;verticalAlign=middle;resizable=0;points=[];autosize=1;strokeColor=none;fillColor=none;fontSize=20;" vertex="1" parent="1">
          <mxGeometry x="260" y="15" width="70" height="60" as="geometry" />
        </mxCell>
        <mxCell id="Ly9fsqYfZSRWiU3ShBAM-5" value="&lt;font style=&quot;font-size: 18px&quot;&gt;Menu&lt;br&gt;&amp;nbsp;Item 3&lt;/font&gt;" style="text;html=1;align=center;verticalAlign=middle;resizable=0;points=[];autosize=1;strokeColor=none;fillColor=none;fontSize=20;" vertex="1" parent="1">
          <mxGeometry x="350" y="15" width="70" height="60" as="geometry" />
        </mxCell>
        <mxCell id="Ly9fsqYfZSRWiU3ShBAM-6" value="&lt;font style=&quot;font-size: 18px&quot;&gt;Menu&lt;br&gt;&amp;nbsp;Item 4&lt;/font&gt;" style="text;html=1;align=center;verticalAlign=middle;resizable=0;points=[];autosize=1;strokeColor=none;fillColor=none;fontSize=20;" vertex="1" parent="1">
          <mxGeometry x="425" y="15" width="70" height="60" as="geometry" />
        </mxCell>
        <mxCell id="Ly9fsqYfZSRWiU3ShBAM-7" value="" style="swimlane;startSize=0;fontSize=18;" vertex="1" parent="1">
          <mxGeometry x="-10" width="1080" height="710" as="geometry" />
        </mxCell>
        <UserObject label="Link" link="https://www.draw.io" id="Ly9fsqYfZSRWiU3ShBAM-8">
          <mxCell style="text;html=1;strokeColor=none;fillColor=none;whiteSpace=wrap;align=center;verticalAlign=middle;fontColor=#0000EE;fontStyle=4;fontSize=18;" vertex="1" parent="Ly9fsqYfZSRWiU3ShBAM-7">
            <mxGeometry x="100" y="110" width="60" height="20" as="geometry" />
          </mxCell>
        </UserObject>
        <UserObject label="Link" link="https://www.draw.io" id="Ly9fsqYfZSRWiU3ShBAM-14">
          <mxCell style="text;html=1;strokeColor=none;fillColor=none;whiteSpace=wrap;align=center;verticalAlign=middle;fontColor=#0000EE;fontStyle=4;fontSize=18;" vertex="1" parent="Ly9fsqYfZSRWiU3ShBAM-7">
            <mxGeometry x="100" y="140" width="60" height="40" as="geometry" />
          </mxCell>
        </UserObject>
        <UserObject label="Link" link="https://www.draw.io" id="Ly9fsqYfZSRWiU3ShBAM-13">
          <mxCell style="text;html=1;strokeColor=none;fillColor=none;whiteSpace=wrap;align=center;verticalAlign=middle;fontColor=#0000EE;fontStyle=4;fontSize=18;" vertex="1" parent="Ly9fsqYfZSRWiU3ShBAM-7">
            <mxGeometry x="100" y="180" width="60" height="40" as="geometry" />
          </mxCell>
        </UserObject>
        <UserObject label="Link" link="https://www.draw.io" id="Ly9fsqYfZSRWiU3ShBAM-12">
          <mxCell style="text;html=1;strokeColor=none;fillColor=none;whiteSpace=wrap;align=center;verticalAlign=middle;fontColor=#0000EE;fontStyle=4;fontSize=18;" vertex="1" parent="Ly9fsqYfZSRWiU3ShBAM-7">
            <mxGeometry x="100" y="220" width="60" height="40" as="geometry" />
          </mxCell>
        </UserObject>
        <UserObject label="Link" link="https://www.draw.io" id="Ly9fsqYfZSRWiU3ShBAM-11">
          <mxCell style="text;html=1;strokeColor=none;fillColor=none;whiteSpace=wrap;align=center;verticalAlign=middle;fontColor=#0000EE;fontStyle=4;fontSize=18;" vertex="1" parent="Ly9fsqYfZSRWiU3ShBAM-7">
            <mxGeometry x="100" y="260" width="60" height="40" as="geometry" />
          </mxCell>
        </UserObject>
        <mxCell id="Ly9fsqYfZSRWiU3ShBAM-19" value="" style="line;strokeWidth=2;html=1;fontSize=18;" vertex="1" parent="Ly9fsqYfZSRWiU3ShBAM-7">
          <mxGeometry x="60" y="130" width="160" height="10" as="geometry" />
        </mxCell>
        <mxCell id="Ly9fsqYfZSRWiU3ShBAM-18" value="" style="line;strokeWidth=2;html=1;fontSize=18;" vertex="1" parent="Ly9fsqYfZSRWiU3ShBAM-7">
          <mxGeometry x="60" y="170" width="160" height="10" as="geometry" />
        </mxCell>
        <mxCell id="Ly9fsqYfZSRWiU3ShBAM-17" value="" style="line;strokeWidth=2;html=1;fontSize=18;" vertex="1" parent="Ly9fsqYfZSRWiU3ShBAM-7">
          <mxGeometry x="60" y="210" width="160" height="10" as="geometry" />
        </mxCell>
        <mxCell id="Ly9fsqYfZSRWiU3ShBAM-16" value="" style="line;strokeWidth=2;html=1;fontSize=18;" vertex="1" parent="Ly9fsqYfZSRWiU3ShBAM-7">
          <mxGeometry x="60" y="250" width="160" height="10" as="geometry" />
        </mxCell>
        <mxCell id="Ly9fsqYfZSRWiU3ShBAM-15" value="" style="line;strokeWidth=2;html=1;fontSize=18;" vertex="1" parent="Ly9fsqYfZSRWiU3ShBAM-7">
          <mxGeometry x="60" y="290" width="160" height="10" as="geometry" />
        </mxCell>
        <UserObject label="Link" link="https://www.draw.io" id="Ly9fsqYfZSRWiU3ShBAM-20">
          <mxCell style="text;html=1;strokeColor=none;fillColor=none;whiteSpace=wrap;align=center;verticalAlign=middle;fontColor=#0000EE;fontStyle=4;fontSize=18;" vertex="1" parent="Ly9fsqYfZSRWiU3ShBAM-7">
            <mxGeometry x="100" y="300" width="60" height="20" as="geometry" />
          </mxCell>
        </UserObject>
        <UserObject label="Link" link="https://www.draw.io" id="Ly9fsqYfZSRWiU3ShBAM-21">
          <mxCell style="text;html=1;strokeColor=none;fillColor=none;whiteSpace=wrap;align=center;verticalAlign=middle;fontColor=#0000EE;fontStyle=4;fontSize=18;" vertex="1" parent="Ly9fsqYfZSRWiU3ShBAM-7">
            <mxGeometry x="100" y="330" width="60" height="40" as="geometry" />
          </mxCell>
        </UserObject>
        <UserObject label="Link" link="https://www.draw.io" id="Ly9fsqYfZSRWiU3ShBAM-22">
          <mxCell style="text;html=1;strokeColor=none;fillColor=none;whiteSpace=wrap;align=center;verticalAlign=middle;fontColor=#0000EE;fontStyle=4;fontSize=18;" vertex="1" parent="Ly9fsqYfZSRWiU3ShBAM-7">
            <mxGeometry x="100" y="370" width="60" height="40" as="geometry" />
          </mxCell>
        </UserObject>
        <mxCell id="Ly9fsqYfZSRWiU3ShBAM-25" value="" style="line;strokeWidth=2;html=1;fontSize=18;" vertex="1" parent="Ly9fsqYfZSRWiU3ShBAM-7">
          <mxGeometry x="60" y="320" width="160" height="10" as="geometry" />
        </mxCell>
        <mxCell id="Ly9fsqYfZSRWiU3ShBAM-26" value="" style="line;strokeWidth=2;html=1;fontSize=18;" vertex="1" parent="Ly9fsqYfZSRWiU3ShBAM-7">
          <mxGeometry x="60" y="360" width="160" height="10" as="geometry" />
        </mxCell>
        <mxCell id="Ly9fsqYfZSRWiU3ShBAM-27" value="" style="line;strokeWidth=2;html=1;fontSize=18;" vertex="1" parent="Ly9fsqYfZSRWiU3ShBAM-7">
          <mxGeometry x="60" y="400" width="160" height="10" as="geometry" />
        </mxCell>
        <mxCell id="Ly9fsqYfZSRWiU3ShBAM-30" value="Search" style="dashed=0;shape=rect;shadow=1;strokeColor=#eeeeee;strokeWidth=1;fillColor=#ffffff;fontSize=22;fontColor=#CCCCCC;align=left;spacingLeft=65;" vertex="1" parent="Ly9fsqYfZSRWiU3ShBAM-7">
          <mxGeometry x="530" y="20" width="240" height="40" as="geometry" />
        </mxCell>
        <mxCell id="Ly9fsqYfZSRWiU3ShBAM-31" value="" style="dashed=0;shape=mxgraph.gmdl.search;strokeWidth=2;strokeColor=#666666;fontSize=18;" vertex="1" parent="Ly9fsqYfZSRWiU3ShBAM-30">
          <mxGeometry y="0.5" width="16" height="16" relative="1" as="geometry">
            <mxPoint x="22" y="-8" as="offset" />
          </mxGeometry>
        </mxCell>
        <mxCell id="Ly9fsqYfZSRWiU3ShBAM-32" value="" style="dashed=0;shape=mxgraph.gmdl.voice;strokeWidth=2;strokeColor=#666666;fillColor=#666666;fontSize=18;" vertex="1" parent="Ly9fsqYfZSRWiU3ShBAM-30">
          <mxGeometry x="1" y="0.5" width="12" height="20" relative="1" as="geometry">
            <mxPoint x="-34" y="-10" as="offset" />
          </mxGeometry>
        </mxCell>
      </root>
    </mxGraphModel>
  </diagram>
</mxfile>
